# xmcd
#
# Track frame offsets:
#	150
#	10170
#	22432
#	35227
#	48370
#	57130
#	69232
#	80532
#	93310
#	106192
#	118052
#	131217
#	144035
#	156072
#	167970
#	181860
#	193650
#	206957
#	219312
#
# Disc length: 3091 seconds
#
# Revision: 1
# Processed by: cddbd v1.5.1PL0 Copyright (c) Steve Scherf et al.
# Submitted via: EasyCDDAExtractor 7.0.6.1
#
DISCID=0f0c1113
DTITLE=Various Artist - Rhythm In The Saddle The Barry and McKean Sisters
DYEAR=1900
DGENRE=Country
TTITLE0=The Barry Sisters - Lazy Lack A Daisy Melody
TTITLE1=The McKean Sisters - I'm A Fool To Care
TTITLE2=The Barry Sisters - Cowboy
TTITLE3=The Barry Sisters - Too Late To Worry,Too Blue To Cry
TTITLE4=The McKean Sisters - The Valley Where The Frangipannis Grow
TTITLE5=The McKean Sisters - Between Two Trees
TTITLE6=The Barry Sisters - High Noon
TTITLE7=The McKean Sisters - By The Banks Of The Sunny Tweed
TTITLE8=The McKean Sisters - Tiny Baby Bonnet
TTITLE9=The Barry Sisters - Ragtime Cowboy Joe
TTITLE10=The Barry Sisters - Lonesome Whistle
TTITLE11=The McKean Sisters - My Sunset Home
TTITLE12=The McKean Sisters - Yodel Down The Valley
TTITLE13=The Barry Sisters - I'm Gonna Tie A Little String Around Your Finger
TTITLE14=The McKean Sisters - Moonrise Lullaby
TTITLE15=The McKean Sisters - Gymkhana Yodel
TTITLE16=The McKean Sisters - Ribbons On My Guitar
TTITLE17=The McKean Sisters - Prairie Loveknot
TTITLE18=The McKean Sisters - My Darling White Rose
EXTD=
EXTT0=
EXTT1=
EXTT2=
EXTT3=
EXTT4=
EXTT5=
EXTT6=
EXTT7=
EXTT8=
EXTT9=
EXTT10=
EXTT11=
EXTT12=
EXTT13=
EXTT14=
EXTT15=
EXTT16=
EXTT17=
EXTT18=
PLAYORDER=
